<svg width="1200" height="675" viewBox="0 0 1200 675" fill="none" xmlns="http://www.w3.org/2000/svg">
  <defs>
    <linearGradient id="bg" x1="0" y1="0" x2="1" y2="1">
      <stop offset="0%" stop-color="#F4EEFF" />
      <stop offset="55%" stop-color="#E8F1FF" />
      <stop offset="100%" stop-color="#FBE9FF" />
    </linearGradient>
    <linearGradient id="orb" x1="0" y1="0" x2="1" y2="1">
      <stop offset="0%" stop-color="#BDA7FF" stop-opacity="0.5" />
      <stop offset="100%" stop-color="#8FB7FF" stop-opacity="0.35" />
    </linearGradient>
    <filter id="blur" x="-50%" y="-50%" width="200%" height="200%">
      <feGaussianBlur stdDeviation="24" />
    </filter>
  </defs>
  <rect width="1200" height="675" fill="url(#bg)" />
  <circle cx="230" cy="180" r="160" fill="url(#orb)" filter="url(#blur)" />
  <circle cx="980" cy="520" r="190" fill="url(#orb)" filter="url(#blur)" />
  <rect x="220" y="190" width="760" height="300" rx="150" fill="#FFFFFF" fill-opacity="0.55" />
  <circle cx="520" cy="340" r="90" fill="url(#orb)" />
  <circle cx="680" cy="340" r="90" fill="url(#orb)" />
  <circle cx="470" cy="300" r="10" fill="#B8A9FF" />
  <circle cx="560" cy="260" r="12" fill="#9FC8FF" />
  <circle cx="640" cy="260" r="10" fill="#D2B8FF" />
  <circle cx="730" cy="300" r="12" fill="#9FC8FF" />
  <path d="M470 300 C520 260, 560 250, 610 270" stroke="#B9AEFF" stroke-width="4" stroke-linecap="round" />
  <path d="M610 270 C650 290, 690 300, 730 300" stroke="#A2C2FF" stroke-width="4" stroke-linecap="round" />
</svg>
